<svg id="visual" viewBox="0 0 900 600" width="900" height="600" xmlns="http://www.w3.org/2000/svg" xmlns:xlink="http://www.w3.org/1999/xlink" version="1.1"><path d="M0 43L37.5 72C75 101 150 159 225 189C300 219 375 221 450 208C525 195 600 167 675 139C750 111 825 83 862.5 69L900 55L900 0L862.5 0C825 0 750 0 675 0C600 0 525 0 450 0C375 0 300 0 225 0C150 0 75 0 37.5 0L0 0Z" fill="#e9e9e9"></path><path d="M0 499L37.5 504C75 509 150 519 225 500C300 481 375 433 450 429C525 425 600 465 675 485C750 505 825 505 862.5 505L900 505L900 53L862.5 67C825 81 750 109 675 137C600 165 525 193 450 206C375 219 300 217 225 187C150 157 75 99 37.5 70L0 41Z" fill="#fcfcfc"></path><path d="M0 601L37.5 601C75 601 150 601 225 601C300 601 375 601 450 601C525 601 600 601 675 601C750 601 825 601 862.5 601L900 601L900 503L862.5 503C825 503 750 503 675 483C600 463 525 423 450 427C375 431 300 479 225 498C150 517 75 507 37.5 502L0 497Z" fill="#e9e9e9"></path></svg>